<?xml version="1.0" encoding="UTF-8" standalone="no"?>
<!DOCTYPE svg PUBLIC "-//W3C//DTD SVG 1.1//EN"
 "http://www.w3.org/Graphics/SVG/1.1/DTD/svg11.dtd">
<!-- Generated by graphviz version 2.40.1 (20161225.0304)
 -->
<!-- Title: G Pages: 1 -->
<svg width="133pt" height="266pt"
 viewBox="0.00 0.00 132.71 266.43" xmlns="http://www.w3.org/2000/svg" xmlns:xlink="http://www.w3.org/1999/xlink">
<g id="graph0" class="graph" transform="scale(1 1) rotate(0) translate(4 262.4264)">
<title>G</title><style>.edge>path:hover{stroke-width:8}</style>
<polygon fill="#ffffff" stroke="transparent" points="-4,4 -4,-262.4264 128.7108,-262.4264 128.7108,4 -4,4"/>
<!-- naivedb -->
<g id="node1" class="node">
<title>naivedb</title><style>.edge>path:hover{stroke-width:8}</style>
<ellipse fill="#b34c4c" stroke="#000000" cx="42.3837" cy="-18" rx="29.3664" ry="18"/>
<text text-anchor="middle" x="42.3837" y="-15.5" font-family="Helvetica,sans-Serif" font-size="10.00" fill="#ffffff">naivedb</text>
</g>
<!-- naivedb_core -->
<g id="node2" class="node">
<title>naivedb_core</title><style>.edge>path:hover{stroke-width:8}</style>
<ellipse fill="#b83d3d" stroke="#000000" cx="42.3837" cy="-90" rx="42.2678" ry="18"/>
<text text-anchor="middle" x="42.3837" y="-87.5" font-family="Helvetica,sans-Serif" font-size="10.00" fill="#ffffff">naivedb.core</text>
</g>
<!-- naivedb_core&#45;&gt;naivedb -->
<g id="edge1" class="edge">
<title>naivedb_core&#45;&gt;naivedb</title><style>.edge>path:hover{stroke-width:8}</style>
<path fill="none" stroke="#000000" d="M42.3837,-71.8314C42.3837,-64.131 42.3837,-54.9743 42.3837,-46.4166"/>
<polygon fill="#b83d3d" stroke="#000000" points="45.8838,-46.4132 42.3837,-36.4133 38.8838,-46.4133 45.8838,-46.4132"/>
</g>
<!-- naivedb_helpers -->
<g id="node3" class="node">
<title>naivedb_helpers</title><style>.edge>path:hover{stroke-width:8}</style>
<ellipse fill="#ce3b3b" stroke="#000000" cx="42.3837" cy="-237.2132" rx="37.4533" ry="21.4286"/>
<text text-anchor="middle" x="42.3837" y="-240.2132" font-family="Helvetica,sans-Serif" font-size="10.00" fill="#ffffff">naivedb.</text>
<text text-anchor="middle" x="42.3837" y="-229.2132" font-family="Helvetica,sans-Serif" font-size="10.00" fill="#ffffff">helpers</text>
</g>
<!-- naivedb_helpers&#45;&gt;naivedb_core -->
<g id="edge2" class="edge">
<title>naivedb_helpers&#45;&gt;naivedb_core</title><style>.edge>path:hover{stroke-width:8}</style>
<path fill="none" stroke="#000000" d="M34.603,-216.3466C31.0204,-205.6454 27.1732,-192.305 25.3837,-180 23.0812,-164.1666 22.9532,-159.8143 25.3837,-144 26.7212,-135.2979 29.2041,-126.074 31.8671,-117.759"/>
<polygon fill="#ce3b3b" stroke="#000000" points="35.2243,-118.7579 35.1399,-108.1634 28.5991,-116.4982 35.2243,-118.7579"/>
</g>
<!-- naivedb_index -->
<g id="node4" class="node">
<title>naivedb_index</title><style>.edge>path:hover{stroke-width:8}</style>
<ellipse fill="#c04040" stroke="#000000" cx="79.3837" cy="-162" rx="45.1548" ry="18"/>
<text text-anchor="middle" x="79.3837" y="-159.5" font-family="Helvetica,sans-Serif" font-size="10.00" fill="#ffffff">naivedb.index</text>
</g>
<!-- naivedb_helpers&#45;&gt;naivedb_index -->
<g id="edge3" class="edge">
<title>naivedb_helpers&#45;&gt;naivedb_index</title><style>.edge>path:hover{stroke-width:8}</style>
<path fill="none" stroke="#000000" d="M52.4941,-216.6609C56.6865,-208.1386 61.6082,-198.134 66.0869,-189.0296"/>
<polygon fill="#ce3b3b" stroke="#000000" points="69.2712,-190.4857 70.5448,-179.9676 62.9901,-187.3957 69.2712,-190.4857"/>
</g>
<!-- naivedb_index&#45;&gt;naivedb_core -->
<g id="edge4" class="edge">
<title>naivedb_index&#45;&gt;naivedb_core</title><style>.edge>path:hover{stroke-width:8}</style>
<path fill="none" stroke="#000000" d="M70.2377,-144.2022C65.9811,-135.9192 60.828,-125.8915 56.1173,-116.7248"/>
<polygon fill="#c04040" stroke="#000000" points="59.1083,-114.8876 51.4246,-107.593 52.8823,-118.0871 59.1083,-114.8876"/>
</g>
</g>
</svg>
